HIERARCHY
ROOT Hips
{
	OFFSET 0.000000 0.000000 0.000000
	CHANNELS 6 Xposition Yposition Zposition Xrotation Yrotation Zrotation
	JOINT LeftUpLeg_virtual
	{
		OFFSET 0.000000 0.000000 0.000000
		CHANNELS 3 Xrotation Yrotation Zrotation
		JOINT LeftUpLeg
		{
			OFFSET 13.026900 -6.336304 -1.092800
			CHANNELS 3 Xrotation Yrotation Zrotation
			JOINT LeftLeg
			{
				OFFSET 0.524474 -46.096886 9.782700
				CHANNELS 3 Xrotation Yrotation Zrotation
				JOINT LeftFoot
				{
					OFFSET -0.524474 -53.427422 -12.948200
					CHANNELS 3 Xrotation Yrotation Zrotation
					JOINT LeftToeBase
					{
						OFFSET 0.192200 -14.009700 16.364100
						CHANNELS 3 Xrotation Yrotation Zrotation
						JOINT LeftToe_End
						{
							OFFSET -1.784700 -0.561700 9.474800
							CHANNELS 3 Xrotation Yrotation Zrotation
							End Site
							{
								OFFSET 0 0 0
							}
						}
					}
				}
			}
		}
	}
	JOINT RightUpLeg_virtual
	{
		OFFSET 0.000000 0.000000 0.000000
		CHANNELS 3 Xrotation Yrotation Zrotation
		JOINT RightUpLeg
		{
			OFFSET -12.883000 -6.336304 -1.092800
			CHANNELS 3 Xrotation Yrotation Zrotation
			JOINT RightLeg
			{
				OFFSET -0.524587 -46.096825 9.782800
				CHANNELS 3 Xrotation Yrotation Zrotation
				JOINT RightFoot
				{
					OFFSET 0.524587 -53.427383 -12.948300
					CHANNELS 3 Xrotation Yrotation Zrotation
					JOINT RightToeBase
					{
						OFFSET -0.192200 -14.009700 16.364100
						CHANNELS 3 Xrotation Yrotation Zrotation
						JOINT RightToe_End
						{
							OFFSET 1.784700 -0.561700 9.474800
							CHANNELS 3 Xrotation Yrotation Zrotation
							End Site
							{
								OFFSET 0 0 0
							}
						}
					}
				}
			}
		}
	}
	JOINT Spine_virtual
	{
		OFFSET 0.000000 0.000000 0.000000
		CHANNELS 3 Xrotation Yrotation Zrotation
		JOINT Spine
		{
			OFFSET 0.072000 7.257294 -0.789700
			CHANNELS 3 Xrotation Yrotation Zrotation
			JOINT Spine1
			{
				OFFSET 0.000000 12.508769 -0.658067
				CHANNELS 3 Xrotation Yrotation Zrotation
				JOINT Spine1_split
				{
					OFFSET 0.000000 12.508769 -0.658067
					CHANNELS 3 Xrotation Yrotation Zrotation
					JOINT Spine2
					{
						OFFSET 0.000000 12.508769 -0.658067
						CHANNELS 3 Xrotation Yrotation Zrotation
						JOINT Neck_virtual
						{
							OFFSET 0.000000 0.000000 0.000000
							CHANNELS 3 Xrotation Yrotation Zrotation
							JOINT Neck
							{
								OFFSET 0.000000 14.033295 7.520400
								CHANNELS 3 Xrotation Yrotation Zrotation
								JOINT Head
								{
									OFFSET 0.000000 8.198502 5.703100
									CHANNELS 3 Xrotation Yrotation Zrotation
									JOINT HeadTop_End
									{
										OFFSET 0.000000 17.760803 13.332701
										CHANNELS 3 Xrotation Yrotation Zrotation
										End Site
										{
											OFFSET 0 0 0
										}
									}
								}
							}
						}
						JOINT LeftShoulder_virtual
						{
							OFFSET 0.000000 0.000000 0.000000
							CHANNELS 3 Xrotation Yrotation Zrotation
							JOINT LeftShoulder
							{
								OFFSET 6.292450 5.785301 -0.669000
								CHANNELS 3 Xrotation Yrotation Zrotation
								JOINT LeftShoulder_split
								{
									OFFSET 6.292450 5.785301 -0.669000
									CHANNELS 3 Xrotation Yrotation Zrotation
									JOINT LeftArm
									{
										OFFSET 13.907140 -6.093903 1.965100
										CHANNELS 3 Xrotation Yrotation Zrotation
										JOINT LeftForeArm
										{
											OFFSET 34.140198 0.000000 0.000000
											CHANNELS 3 Xrotation Yrotation Zrotation
											JOINT LeftHand
											{
												OFFSET 40.960209 0.000000 0.000000
												CHANNELS 3 Xrotation Yrotation Zrotation
												End Site
												{
													OFFSET 0 0 0
												}
											}
										}
									}
								}
							}
						}
						JOINT RightShoulder_virtual
						{
							OFFSET 0.000000 0.000000 0.000000
							CHANNELS 3 Xrotation Yrotation Zrotation
							JOINT RightShoulder
							{
								OFFSET -6.292450 5.785301 -0.669000
								CHANNELS 3 Xrotation Yrotation Zrotation
								JOINT RightShoulder_split
								{
									OFFSET -6.292450 5.785301 -0.669000
									CHANNELS 3 Xrotation Yrotation Zrotation
									JOINT RightArm
									{
										OFFSET -13.907140 -6.093903 1.965100
										CHANNELS 3 Xrotation Yrotation Zrotation
										JOINT RightForeArm
										{
											OFFSET -34.140198 0.000000 0.000000
											CHANNELS 3 Xrotation Yrotation Zrotation
											JOINT RightHand
											{
												OFFSET -40.960209 0.000000 0.000000
												CHANNELS 3 Xrotation Yrotation Zrotation
												End Site
												{
													OFFSET 0 0 0
												}
											}
										}
									}
								}
							}
						}
					}
				}
			}
		}
	}
}
MOTION
Frames: 7
Frame Time: 0.03333333
11.336036 80.316551 66.717545 0.000000 0.000000 0.000000 -15.262830 -42.141492 -10.250968 -50.938629 -4.203962 29.116161 63.363351 -5.881789 6.813635 -2.570966 -10.128548 -24.075300 -0.000022 0.000003 -0.000006 0.000000 0.000000 0.000000 -15.262830 -42.141492 -10.250968 -31.235363 0.727894 -40.788326 78.317613 10.798877 -9.632056 5.582735 -2.909907 14.250696 -23.132995 -3.177200 12.842993 0.000000 0.000000 0.000000 -15.262830 -42.141492 -10.250968 25.922042 5.014329 -11.783127 -0.007321 0.740834 0.739482 0.000000 0.000000 0.000000 0.000000 0.000000 0.000000 -0.021546 0.795783 0.715261 3.577647 13.114697 1.876301 0.173872 21.052663 -5.722966 0.000000 0.000000 0.000000 -0.021546 0.795783 0.715261 0.779444 2.140496 -7.063367 0.000000 0.000000 0.000000 -57.357722 1.685990 -44.415569 -179.999937 -67.639418 -179.999937 0.000000 0.000000 0.000000 -0.021546 0.795783 0.715261 2.584169 13.110039 -5.955823 0.000000 0.000000 0.000000 -44.416700 22.208242 83.660009 179.999882 65.087263 -179.999882 0.000000 0.000000 0.000000 
9.760715 82.194466 62.865929 0.000000 0.000000 0.000000 -14.770593 -42.913539 -8.394886 -47.813097 -2.150065 29.611974 56.222098 -6.348284 6.790176 0.663219 -10.063627 -26.063114 -0.000088 0.000005 -0.000004 0.000000 0.000000 0.000000 -14.770593 -42.913539 -8.394886 -29.027010 -0.959629 -39.429381 76.381159 10.994320 -9.854973 -3.732974 -8.153529 18.095603 -19.935285 -1.004951 7.448379 0.000000 0.000000 0.000000 -14.770593 -42.913539 -8.394886 23.052192 6.469032 -10.490414 0.646536 0.929547 0.134782 0.000000 0.000000 0.000000 0.000000 0.000000 0.000000 0.636326 0.960700 0.115374 4.340624 13.104364 0.961784 1.464764 20.711691 -6.151120 0.000000 0.000000 0.000000 0.636326 0.960700 0.115374 0.727744 3.026999 -7.324553 0.000000 0.000000 0.000000 -54.688604 2.382177 -44.353442 -179.999950 -66.001443 -179.999978 0.000000 0.000000 0.000000 0.636326 0.960700 0.115374 2.812982 13.874461 -5.932526 0.000000 0.000000 0.000000 -45.155825 21.957414 84.432954 -179.999978 65.497430 179.999964 0.000000 0.000000 0.000000 
8.118830 83.975410 58.650105 0.000000 0.000000 0.000000 -12.864599 -42.516869 -5.867922 -45.962539 -0.516354 29.459456 48.359898 -6.949385 6.741041 4.532946 -10.838322 -27.684550 -0.000006 -0.000003 0.000004 0.000000 0.000000 0.000000 -12.864599 -42.516869 -5.867922 -26.535476 -3.579499 -37.955856 73.163894 9.912526 -8.940304 -14.876449 -13.154209 20.134477 -13.781734 -0.041559 1.570729 0.000000 0.000000 0.000000 -12.864599 -42.516869 -5.867922 19.484023 7.644065 -8.569132 1.352514 1.057872 -0.608382 0.000000 0.000000 0.000000 0.000000 0.000000 0.000000 1.352140 1.065427 -0.615880 5.139179 13.011476 -0.052973 2.198363 19.765674 -6.130645 0.000000 0.000000 0.000000 1.352140 1.065427 -0.615880 0.720599 3.654625 -7.622853 0.000000 0.000000 0.000000 -53.440821 2.217204 -44.400287 179.999964 -65.283146 179.999950 0.000000 0.000000 0.000000 1.352140 1.065427 -0.615880 2.810635 14.537255 -6.138983 0.000000 0.000000 0.000000 -46.080179 20.947441 84.878822 -179.999923 65.647742 179.999937 0.000000 0.000000 0.000000 
6.777119 85.607155 54.285637 0.000000 0.000000 0.000000 -10.262326 -41.299101 -3.080021 -45.618328 0.119020 28.419724 43.304117 -7.128622 5.995507 4.842793 -10.809346 -28.375715 1.921897 -0.000003 0.000003 0.000000 0.000000 0.000000 -10.262326 -41.299101 -3.080021 -25.434528 -5.596483 -37.375140 69.602708 7.355277 -5.816416 -24.680042 -14.677013 18.107122 -6.023803 -0.000021 -0.000000 0.000000 0.000000 0.000000 -10.262326 -41.299101 -3.080021 16.286221 8.113526 -6.818613 1.874576 1.097743 -1.317245 0.000000 0.000000 0.000000 0.000000 0.000000 0.000000 1.886066 1.087211 -1.312155 5.491041 12.883362 -0.792214 2.478761 18.552093 -5.750200 0.000000 0.000000 0.000000 1.886066 1.087211 -1.312155 0.717232 3.924106 -7.764516 0.000000 0.000000 0.000000 -54.024457 1.701613 -44.671175 -179.999978 -65.480484 -179.999978 0.000000 0.000000 0.000000 1.886066 1.087211 -1.312155 2.470813 14.861052 -6.589037 0.000000 0.000000 0.000000 -47.485794 20.109959 84.599789 -179.999937 65.662638 179.999923 0.000000 0.000000 0.000000 
5.819667 87.674500 49.698235 0.000000 0.000000 0.000000 -7.947014 -39.853119 -0.659683 -46.768843 0.609339 26.090214 43.619343 -6.858364 4.766216 1.041060 -9.751743 -25.338837 1.000657 0.000021 0.000001 0.000000 0.000000 0.000000 -7.947014 -39.853119 -0.659683 -26.173688 -6.831507 -36.554220 67.193147 5.150901 -3.065021 -28.329210 -14.728345 16.772482 -0.457315 -0.000195 0.111334 0.000000 0.000000 0.000000 -7.947014 -39.853119 -0.659683 15.254934 7.781253 -6.409495 1.890067 1.066437 -1.668091 0.000000 0.000000 0.000000 0.000000 0.000000 0.000000 1.907840 1.047428 -1.659999 5.208640 12.741142 -1.088781 2.364861 17.474665 -5.540659 0.000000 0.000000 0.000000 1.907840 1.047428 -1.659999 0.742648 3.717756 -7.713984 0.000000 0.000000 0.000000 -56.055397 1.579854 -45.004492 179.999964 -66.385225 179.999978 0.000000 0.000000 0.000000 1.907840 1.047428 -1.659999 1.776026 14.703106 -7.302538 0.000000 0.000000 0.000000 -48.721543 20.233723 83.907317 179.999950 65.349925 -179.999964 0.000000 0.000000 0.000000 
5.387688 90.304192 45.386379 0.000000 0.000000 0.000000 -6.571935 -38.656801 0.204233 -47.506643 1.629992 23.498569 47.621998 -5.864967 4.161774 -4.464138 -9.652715 -23.492651 1.102902 -0.000009 0.000005 0.000000 0.000000 0.000000 -6.571935 -38.656801 0.204233 -27.473073 -7.755454 -34.850152 65.437679 2.870782 -0.960812 -27.493665 -13.184546 14.776119 0.007959 0.000004 0.009732 0.000000 0.000000 0.000000 -6.571935 -38.656801 0.204233 16.496100 7.056344 -6.542095 1.373369 1.001745 -1.412962 0.000000 0.000000 0.000000 0.000000 0.000000 0.000000 1.387014 0.982570 -1.413534 4.544866 12.610617 -1.070822 1.848850 16.915013 -6.020235 0.000000 0.000000 0.000000 1.387014 0.982570 -1.413534 0.828003 3.119065 -7.611780 0.000000 0.000000 0.000000 -58.617763 1.942430 -45.501511 179.999950 -67.950663 179.999950 0.000000 0.000000 0.000000 1.387014 0.982570 -1.413534 1.113460 14.164120 -7.979230 0.000000 0.000000 0.000000 -49.589878 21.179787 83.157444 179.999978 64.711849 -179.999991 0.000000 0.000000 0.000000 
5.378945 93.312187 41.532291 0.000000 0.000000 0.000000 -5.446897 -38.320032 -0.321231 -47.438662 2.181858 21.678728 53.054157 -6.186209 3.679407 -5.703227 -10.033533 -25.112049 1.412266 -0.000017 0.000000 0.000000 0.000000 0.000000 -5.446897 -38.320032 -0.321231 -28.349673 -8.915421 -31.870475 62.758681 0.526249 0.845436 -25.323755 -10.993923 11.975231 -0.417975 -0.000045 -0.000000 0.000000 0.000000 0.000000 -5.446897 -38.320032 -0.321231 18.041789 6.374998 -6.391336 0.945066 0.916698 -0.876162 0.000000 0.000000 0.000000 0.000000 0.000000 0.000000 0.951748 0.908267 -0.883412 3.839364 12.597334 -1.023831 1.041527 17.112072 -6.902102 0.000000 0.000000 0.000000 0.951748 0.908267 -0.883412 0.926602 2.473429 -7.528975 0.000000 0.000000 0.000000 -61.452100 2.547732 -45.946546 179.999978 -69.184502 179.999964 0.000000 0.000000 0.000000 0.951748 0.908267 -0.883412 0.862081 13.730916 -8.246002 0.000000 0.000000 0.000000 -50.564847 22.193607 82.578961 -179.999950 63.851026 179.999964 0.000000 0.000000 0.000000 
